# xmcd
# Track frame offsets:
# 150
# 12803
# 25969
# 40931
# 55552
# 64431
# 78163
# 94227
# 109158
# 124061
# 125753
#
# Disc length: 1898 seconds
# Revision: 0
# Processed by: cddbd v1.4PL0 Copyright (c) Steve Scherf et al.
# Submitted via: VisiTrax 2.9.5.180 - For more info visit www.synapsa.com
#
DISCID=8e07680b
DTITLE=Billy Keeble - Dear Santa
DYEAR=2002
DGENRE=Christmas
TTITLE0=Santa Claus is coming to town
TTITLE1=White Christmas
TTITLE2=When it's christmas time in Texas
TTITLE3=Pretty paper
TTITLE4=Rudolph the red nosed reindeer
TTITLE5=What a merry christmas this could be
TTITLE6=Blue christmas
TTITLE7=Another silent night
TTITLE8=Dear Santa
TTITLE9=Intro to next song
TTITLE10=He will stand beside me
EXTD=
EXTT0=
EXTT1=
EXTT2=
EXTT3=
EXTT4=
EXTT5=
EXTT6=
EXTT7=
EXTT8=
EXTT9=
EXTT10=
PLAYORDER=
